<svg width="1440" height="889" viewBox="0 0 1440 889" fill="none" xmlns="http://www.w3.org/2000/svg">
<rect width="1440" height="768.777" transform="translate(0 56)" fill="#C8C8C8"/>
<g filter="url(#filter0_d_225_3)">
<path d="M479.847 825H10C4.47715 825 0 820.523 0 815V173.069C0 167.546 4.47714 163.069 9.99999 163.069H479.847C485.37 163.069 489.847 167.546 489.847 173.069V418.98C489.847 424.503 494.324 428.98 499.847 428.98H568.753C574.276 428.98 578.753 424.503 578.753 418.98V173.069C578.753 167.546 583.23 163.069 588.753 163.069H840.062C845.585 163.069 850.062 158.592 850.062 153.069V66C850.062 60.4772 854.539 56 860.062 56H1430C1435.52 56 1440 60.4772 1440 66V514.783C1440 520.259 1435.59 524.717 1430.12 524.782L811.474 532.137C805.998 532.202 801.593 536.659 801.593 542.136V815C801.593 820.523 797.116 825 791.593 825H588.753C583.23 825 578.753 820.523 578.753 815V681.851C578.753 676.328 574.276 671.851 568.753 671.851H499.847C494.324 671.851 489.847 676.328 489.847 681.851V815C489.847 820.523 485.37 825 479.847 825Z" fill="#DDDDDD"/>
</g>
<g filter="url(#filter1_d_225_3)">
<path d="M96.7403 380H58C53.5817 380 50 376.418 50 372V226.528C50 222.115 53.5746 218.535 57.9883 218.528L409.988 218.012C414.411 218.005 418 221.589 418 226.012V231.5V372.041C418 376.459 414.418 380 410 380H370.694C366.284 380 362.705 376.43 362.694 372.019L362.445 268.441C362.434 264.03 358.856 260.46 354.445 260.46H113.127C108.72 260.46 105.143 264.024 105.127 268.43L104.74 372.03C104.724 376.436 101.147 380 96.7403 380Z" fill="white"/>
</g>
<path d="M199.147 236.925C199.947 237.308 200.581 237.858 201.047 238.575C201.531 239.292 201.772 240.117 201.772 241.05C201.772 242.45 201.281 243.625 200.297 244.575C199.314 245.525 198.114 246 196.697 246H189.147V228.5H196.147C197.514 228.5 198.672 228.958 199.622 229.875C200.572 230.792 201.047 231.925 201.047 233.275C201.047 234.825 200.414 236.042 199.147 236.925ZM196.147 230.675H191.472V236.025H196.147C196.881 236.025 197.497 235.767 197.997 235.25C198.497 234.733 198.747 234.1 198.747 233.35C198.747 232.617 198.489 231.992 197.972 231.475C197.472 230.942 196.864 230.675 196.147 230.675ZM196.697 243.825C197.481 243.825 198.139 243.55 198.672 243C199.206 242.45 199.472 241.775 199.472 240.975C199.472 240.192 199.197 239.525 198.647 238.975C198.114 238.425 197.464 238.15 196.697 238.15H191.472V243.825H196.697ZM209.578 238C210.828 238 211.862 238.375 212.678 239.125C213.512 239.858 213.928 240.817 213.928 242C213.928 243.183 213.512 244.15 212.678 244.9C211.862 245.633 210.828 246 209.578 246H204.303V233.5H206.478V238H209.578ZM215.553 233.5H217.728V246H215.553V233.5ZM209.578 243.975C210.195 243.975 210.712 243.8 211.128 243.45C211.562 243.083 211.778 242.6 211.778 242C211.778 241.4 211.562 240.917 211.128 240.55C210.712 240.183 210.195 240 209.578 240H206.478V243.975H209.578ZM231.801 243.925H233.526V249.35H231.376V246H222.001V249.35H219.851V243.925H221.376C222.176 242.825 222.576 241.283 222.576 239.3V233.5H231.801V243.925ZM223.851 243.925H229.651V235.525H224.726V239.3C224.726 241.167 224.435 242.708 223.851 243.925ZM245.732 233.5H247.907V246H245.732V243.85C244.649 245.5 243.074 246.325 241.007 246.325C239.257 246.325 237.766 245.692 236.532 244.425C235.299 243.142 234.682 241.583 234.682 239.75C234.682 237.917 235.299 236.367 236.532 235.1C237.766 233.817 239.257 233.175 241.007 233.175C243.074 233.175 244.649 234 245.732 235.65V233.5ZM241.282 244.225C242.549 244.225 243.607 243.8 244.457 242.95C245.307 242.083 245.732 241.017 245.732 239.75C245.732 238.483 245.307 237.425 244.457 236.575C243.607 235.708 242.549 235.275 241.282 235.275C240.032 235.275 238.982 235.708 238.132 236.575C237.282 237.425 236.857 238.483 236.857 239.75C236.857 241.017 237.282 242.083 238.132 242.95C238.982 243.8 240.032 244.225 241.282 244.225ZM259.078 233.5H261.253V246H259.078V241.5C258.078 241.933 256.953 242.15 255.703 242.15C254.103 242.15 252.861 241.775 251.978 241.025C251.111 240.258 250.678 239.133 250.678 237.65V233.5H252.853V237.525C252.853 238.458 253.103 239.125 253.603 239.525C254.119 239.925 254.869 240.125 255.853 240.125C257.036 240.125 258.111 239.908 259.078 239.475V233.5ZM274.907 233.5H277.082V246H274.907V243.85C273.824 245.5 272.249 246.325 270.182 246.325C268.432 246.325 266.941 245.692 265.707 244.425C264.474 243.142 263.857 241.583 263.857 239.75C263.857 237.917 264.474 236.367 265.707 235.1C266.941 233.817 268.432 233.175 270.182 233.175C272.249 233.175 273.824 234 274.907 235.65V233.5ZM270.457 244.225C271.724 244.225 272.782 243.8 273.632 242.95C274.482 242.083 274.907 241.017 274.907 239.75C274.907 238.483 274.482 237.425 273.632 236.575C272.782 235.708 271.724 235.275 270.457 235.275C269.207 235.275 268.157 235.708 267.307 236.575C266.457 237.425 266.032 238.483 266.032 239.75C266.032 241.017 266.457 242.083 267.307 242.95C268.157 243.8 269.207 244.225 270.457 244.225Z" fill="black"/>
<g filter="url(#filter2_d_225_3)">
<path d="M650.814 408H622C617.582 408 614 404.418 614 400V199C614 194.582 617.582 191 622 191H791C795.418 191 799 194.582 799 199V224.668C799 229.087 795.418 232.668 791 232.668H666.814C662.395 232.668 658.814 236.25 658.814 240.668V400C658.814 404.418 655.232 408 650.814 408Z" fill="white"/>
</g>
<g filter="url(#filter3_d_225_3)">
<path d="M1376 91V116C1376 120.418 1372.42 124 1368 124L915 124C910.582 124 907 120.418 907 116V91C907 86.5817 910.582 83 915 83L1368 83C1372.42 83 1376 86.5817 1376 91Z" fill="white"/>
</g>
<path d="M55 407H411" stroke="#962B2B" stroke-width="35" stroke-linecap="round"/>
<path d="M614 440L806 440" stroke="#FFEF9C" stroke-width="35" stroke-linecap="round"/>
<path d="M1032 152H1362" stroke="#8FD292" stroke-width="35" stroke-linecap="round"/>
<path d="M672.147 212.925C672.947 213.308 673.581 213.858 674.047 214.575C674.531 215.292 674.772 216.117 674.772 217.05C674.772 218.45 674.281 219.625 673.297 220.575C672.314 221.525 671.114 222 669.697 222H662.147V204.5H669.147C670.514 204.5 671.672 204.958 672.622 205.875C673.572 206.792 674.047 207.925 674.047 209.275C674.047 210.825 673.414 212.042 672.147 212.925ZM669.147 206.675H664.472V212.025H669.147C669.881 212.025 670.497 211.767 670.997 211.25C671.497 210.733 671.747 210.1 671.747 209.35C671.747 208.617 671.489 207.992 670.972 207.475C670.472 206.942 669.864 206.675 669.147 206.675ZM669.697 219.825C670.481 219.825 671.139 219.55 671.672 219C672.206 218.45 672.472 217.775 672.472 216.975C672.472 216.192 672.197 215.525 671.647 214.975C671.114 214.425 670.464 214.15 669.697 214.15H664.472V219.825H669.697ZM682.578 214C683.828 214 684.862 214.375 685.678 215.125C686.512 215.858 686.928 216.817 686.928 218C686.928 219.183 686.512 220.15 685.678 220.9C684.862 221.633 683.828 222 682.578 222H677.303V209.5H679.478V214H682.578ZM688.553 209.5H690.728V222H688.553V209.5ZM682.578 219.975C683.195 219.975 683.712 219.8 684.128 219.45C684.562 219.083 684.778 218.6 684.778 218C684.778 217.4 684.562 216.917 684.128 216.55C683.712 216.183 683.195 216 682.578 216H679.478V219.975H682.578ZM704.801 219.925H706.526V225.35H704.376V222H695.001V225.35H692.851V219.925H694.376C695.176 218.825 695.576 217.283 695.576 215.3V209.5H704.801V219.925ZM696.851 219.925H702.651V211.525H697.726V215.3C697.726 217.167 697.435 218.708 696.851 219.925ZM718.732 209.5H720.907V222H718.732V219.85C717.649 221.5 716.074 222.325 714.007 222.325C712.257 222.325 710.766 221.692 709.532 220.425C708.299 219.142 707.682 217.583 707.682 215.75C707.682 213.917 708.299 212.367 709.532 211.1C710.766 209.817 712.257 209.175 714.007 209.175C716.074 209.175 717.649 210 718.732 211.65V209.5ZM714.282 220.225C715.549 220.225 716.607 219.8 717.457 218.95C718.307 218.083 718.732 217.017 718.732 215.75C718.732 214.483 718.307 213.425 717.457 212.575C716.607 211.708 715.549 211.275 714.282 211.275C713.032 211.275 711.982 211.708 711.132 212.575C710.282 213.425 709.857 214.483 709.857 215.75C709.857 217.017 710.282 218.083 711.132 218.95C711.982 219.8 713.032 220.225 714.282 220.225ZM732.078 209.5H734.253V222H732.078V217.5C731.078 217.933 729.953 218.15 728.703 218.15C727.103 218.15 725.861 217.775 724.978 217.025C724.111 216.258 723.678 215.133 723.678 213.65V209.5H725.853V213.525C725.853 214.458 726.103 215.125 726.603 215.525C727.119 215.925 727.869 216.125 728.853 216.125C730.036 216.125 731.111 215.908 732.078 215.475V209.5ZM747.907 209.5H750.082V222H747.907V219.85C746.824 221.5 745.249 222.325 743.182 222.325C741.432 222.325 739.941 221.692 738.707 220.425C737.474 219.142 736.857 217.583 736.857 215.75C736.857 213.917 737.474 212.367 738.707 211.1C739.941 209.817 741.432 209.175 743.182 209.175C745.249 209.175 746.824 210 747.907 211.65V209.5ZM743.457 220.225C744.724 220.225 745.782 219.8 746.632 218.95C747.482 218.083 747.907 217.017 747.907 215.75C747.907 214.483 747.482 213.425 746.632 212.575C745.782 211.708 744.724 211.275 743.457 211.275C742.207 211.275 741.157 211.708 740.307 212.575C739.457 213.425 739.032 214.483 739.032 215.75C739.032 217.017 739.457 218.083 740.307 218.95C741.157 219.8 742.207 220.225 743.457 220.225Z" fill="black"/>
<path d="M1107.15 104.925C1107.95 105.308 1108.58 105.858 1109.05 106.575C1109.53 107.292 1109.77 108.117 1109.77 109.05C1109.77 110.45 1109.28 111.625 1108.3 112.575C1107.31 113.525 1106.11 114 1104.7 114H1097.15V96.5H1104.15C1105.51 96.5 1106.67 96.9583 1107.62 97.875C1108.57 98.7917 1109.05 99.925 1109.05 101.275C1109.05 102.825 1108.41 104.042 1107.15 104.925ZM1104.15 98.675H1099.47V104.025H1104.15C1104.88 104.025 1105.5 103.767 1106 103.25C1106.5 102.733 1106.75 102.1 1106.75 101.35C1106.75 100.617 1106.49 99.9917 1105.97 99.475C1105.47 98.9417 1104.86 98.675 1104.15 98.675ZM1104.7 111.825C1105.48 111.825 1106.14 111.55 1106.67 111C1107.21 110.45 1107.47 109.775 1107.47 108.975C1107.47 108.192 1107.2 107.525 1106.65 106.975C1106.11 106.425 1105.46 106.15 1104.7 106.15H1099.47V111.825H1104.7ZM1117.58 106C1118.83 106 1119.86 106.375 1120.68 107.125C1121.51 107.858 1121.93 108.817 1121.93 110C1121.93 111.183 1121.51 112.15 1120.68 112.9C1119.86 113.633 1118.83 114 1117.58 114H1112.3V101.5H1114.48V106H1117.58ZM1123.55 101.5H1125.73V114H1123.55V101.5ZM1117.58 111.975C1118.19 111.975 1118.71 111.8 1119.13 111.45C1119.56 111.083 1119.78 110.6 1119.78 110C1119.78 109.4 1119.56 108.917 1119.13 108.55C1118.71 108.183 1118.19 108 1117.58 108H1114.48V111.975H1117.58ZM1139.8 111.925H1141.53V117.35H1139.38V114H1130V117.35H1127.85V111.925H1129.38C1130.18 110.825 1130.58 109.283 1130.58 107.3V101.5H1139.8V111.925ZM1131.85 111.925H1137.65V103.525H1132.73V107.3C1132.73 109.167 1132.43 110.708 1131.85 111.925ZM1153.73 101.5H1155.91V114H1153.73V111.85C1152.65 113.5 1151.07 114.325 1149.01 114.325C1147.26 114.325 1145.77 113.692 1144.53 112.425C1143.3 111.142 1142.68 109.583 1142.68 107.75C1142.68 105.917 1143.3 104.367 1144.53 103.1C1145.77 101.817 1147.26 101.175 1149.01 101.175C1151.07 101.175 1152.65 102 1153.73 103.65V101.5ZM1149.28 112.225C1150.55 112.225 1151.61 111.8 1152.46 110.95C1153.31 110.083 1153.73 109.017 1153.73 107.75C1153.73 106.483 1153.31 105.425 1152.46 104.575C1151.61 103.708 1150.55 103.275 1149.28 103.275C1148.03 103.275 1146.98 103.708 1146.13 104.575C1145.28 105.425 1144.86 106.483 1144.86 107.75C1144.86 109.017 1145.28 110.083 1146.13 110.95C1146.98 111.8 1148.03 112.225 1149.28 112.225ZM1167.08 101.5H1169.25V114H1167.08V109.5C1166.08 109.933 1164.95 110.15 1163.7 110.15C1162.1 110.15 1160.86 109.775 1159.98 109.025C1159.11 108.258 1158.68 107.133 1158.68 105.65V101.5H1160.85V105.525C1160.85 106.458 1161.1 107.125 1161.6 107.525C1162.12 107.925 1162.87 108.125 1163.85 108.125C1165.04 108.125 1166.11 107.908 1167.08 107.475V101.5ZM1182.91 101.5H1185.08V114H1182.91V111.85C1181.82 113.5 1180.25 114.325 1178.18 114.325C1176.43 114.325 1174.94 113.692 1173.71 112.425C1172.47 111.142 1171.86 109.583 1171.86 107.75C1171.86 105.917 1172.47 104.367 1173.71 103.1C1174.94 101.817 1176.43 101.175 1178.18 101.175C1180.25 101.175 1181.82 102 1182.91 103.65V101.5ZM1178.46 112.225C1179.72 112.225 1180.78 111.8 1181.63 110.95C1182.48 110.083 1182.91 109.017 1182.91 107.75C1182.91 106.483 1182.48 105.425 1181.63 104.575C1180.78 103.708 1179.72 103.275 1178.46 103.275C1177.21 103.275 1176.16 103.708 1175.31 104.575C1174.46 105.425 1174.03 106.483 1174.03 107.75C1174.03 109.017 1174.46 110.083 1175.31 110.95C1176.16 111.8 1177.21 112.225 1178.46 112.225Z" fill="black"/>
<defs>
<filter id="filter0_d_225_3" x="-60" y="0" width="1560" height="889" filterUnits="userSpaceOnUse" color-interpolation-filters="sRGB">
<feFlood flood-opacity="0" result="BackgroundImageFix"/>
<feColorMatrix in="SourceAlpha" type="matrix" values="0 0 0 0 0 0 0 0 0 0 0 0 0 0 0 0 0 0 127 0" result="hardAlpha"/>
<feOffset dy="4"/>
<feGaussianBlur stdDeviation="30"/>
<feComposite in2="hardAlpha" operator="out"/>
<feColorMatrix type="matrix" values="0 0 0 0 0.39349 0 0 0 0 0.39349 0 0 0 0 0.39349 0 0 0 0.25 0"/>
<feBlend mode="normal" in2="BackgroundImageFix" result="effect1_dropShadow_225_3"/>
<feBlend mode="normal" in="SourceGraphic" in2="effect1_dropShadow_225_3" result="shape"/>
</filter>
<filter id="filter1_d_225_3" x="20" y="192.012" width="428" height="221.988" filterUnits="userSpaceOnUse" color-interpolation-filters="sRGB">
<feFlood flood-opacity="0" result="BackgroundImageFix"/>
<feColorMatrix in="SourceAlpha" type="matrix" values="0 0 0 0 0 0 0 0 0 0 0 0 0 0 0 0 0 0 127 0" result="hardAlpha"/>
<feOffset dy="4"/>
<feGaussianBlur stdDeviation="15"/>
<feComposite in2="hardAlpha" operator="out"/>
<feColorMatrix type="matrix" values="0 0 0 0 0.737255 0 0 0 0 0.737255 0 0 0 0 0.737255 0 0 0 0.25 0"/>
<feBlend mode="normal" in2="BackgroundImageFix" result="effect1_dropShadow_225_3"/>
<feBlend mode="normal" in="SourceGraphic" in2="effect1_dropShadow_225_3" result="shape"/>
</filter>
<filter id="filter2_d_225_3" x="604" y="185" width="205" height="237" filterUnits="userSpaceOnUse" color-interpolation-filters="sRGB">
<feFlood flood-opacity="0" result="BackgroundImageFix"/>
<feColorMatrix in="SourceAlpha" type="matrix" values="0 0 0 0 0 0 0 0 0 0 0 0 0 0 0 0 0 0 127 0" result="hardAlpha"/>
<feOffset dy="4"/>
<feGaussianBlur stdDeviation="5"/>
<feComposite in2="hardAlpha" operator="out"/>
<feColorMatrix type="matrix" values="0 0 0 0 0.738187 0 0 0 0 0.738187 0 0 0 0 0.738187 0 0 0 0.25 0"/>
<feBlend mode="normal" in2="BackgroundImageFix" result="effect1_dropShadow_225_3"/>
<feBlend mode="normal" in="SourceGraphic" in2="effect1_dropShadow_225_3" result="shape"/>
</filter>
<filter id="filter3_d_225_3" x="897" y="77" width="489" height="61" filterUnits="userSpaceOnUse" color-interpolation-filters="sRGB">
<feFlood flood-opacity="0" result="BackgroundImageFix"/>
<feColorMatrix in="SourceAlpha" type="matrix" values="0 0 0 0 0 0 0 0 0 0 0 0 0 0 0 0 0 0 127 0" result="hardAlpha"/>
<feOffset dy="4"/>
<feGaussianBlur stdDeviation="5"/>
<feComposite in2="hardAlpha" operator="out"/>
<feColorMatrix type="matrix" values="0 0 0 0 0.738187 0 0 0 0 0.738187 0 0 0 0 0.738187 0 0 0 0.25 0"/>
<feBlend mode="normal" in2="BackgroundImageFix" result="effect1_dropShadow_225_3"/>
<feBlend mode="normal" in="SourceGraphic" in2="effect1_dropShadow_225_3" result="shape"/>
</filter>
</defs>
</svg>
