<svg width="1440" height="829" viewBox="0 0 1440 829" fill="none" xmlns="http://www.w3.org/2000/svg">
<rect width="1440" height="768.777" transform="translate(0 26)" fill="#1C191E"/>
<g filter="url(#filter0_d_226_67)">
<path d="M479.847 795H10C4.47715 795 0 790.523 0 785V143.069C0 137.546 4.47714 133.069 9.99999 133.069H479.847C485.37 133.069 489.847 137.546 489.847 143.069V388.98C489.847 394.503 494.324 398.98 499.847 398.98H568.753C574.276 398.98 578.753 394.503 578.753 388.98V143.069C578.753 137.546 583.23 133.069 588.753 133.069H840.062C845.585 133.069 850.062 128.592 850.062 123.069V36C850.062 30.4772 854.539 26 860.062 26H1430C1435.52 26 1440 30.4772 1440 36V484.783C1440 490.259 1435.59 494.717 1430.12 494.782L811.474 502.137C805.998 502.202 801.593 506.659 801.593 512.136V785C801.593 790.523 797.116 795 791.593 795H588.753C583.23 795 578.753 790.523 578.753 785V651.851C578.753 646.328 574.276 641.851 568.753 641.851H499.847C494.324 641.851 489.847 646.328 489.847 651.851V785C489.847 790.523 485.37 795 479.847 795Z" fill="#302D32"/>
</g>
<g filter="url(#filter1_d_226_67)">
<path d="M96.7403 350H58C53.5817 350 50 346.418 50 342V196.528C50 192.115 53.5746 188.535 57.9883 188.528L409.988 188.012C414.411 188.005 418 191.589 418 196.012V201.5V342.041C418 346.459 414.418 350 410 350H370.694C366.284 350 362.705 346.43 362.694 342.019L362.445 238.441C362.434 234.03 358.856 230.46 354.445 230.46H113.127C108.72 230.46 105.143 234.024 105.127 238.43L104.74 342.03C104.724 346.436 101.147 350 96.7403 350Z" fill="#C7C7C7"/>
</g>
<g filter="url(#filter2_d_226_67)">
<path d="M650.814 378H622C617.582 378 614 374.418 614 370V169C614 164.582 617.582 161 622 161H791C795.418 161 799 164.582 799 169V194.668C799 199.087 795.418 202.668 791 202.668H666.814C662.395 202.668 658.814 206.25 658.814 210.668V370C658.814 374.418 655.232 378 650.814 378Z" fill="#C7C7C7"/>
</g>
<g filter="url(#filter3_d_226_67)">
<path d="M1376 61V86C1376 90.4183 1372.42 94 1368 94L915 94C910.582 94 907 90.4183 907 86V61C907 56.5817 910.582 53 915 53L1368 53C1372.42 53 1376 56.5817 1376 61Z" fill="#C7C7C7"/>
</g>
<path d="M55 377H411" stroke="#962B2B" stroke-width="35" stroke-linecap="round"/>
<path d="M614 410L806 410" stroke="#FFEF9C" stroke-width="35" stroke-linecap="round"/>
<path d="M1032 122H1362" stroke="#8FD292" stroke-width="35" stroke-linecap="round"/>
<path d="M672.147 182.925C672.947 183.308 673.581 183.858 674.047 184.575C674.531 185.292 674.772 186.117 674.772 187.05C674.772 188.45 674.281 189.625 673.297 190.575C672.314 191.525 671.114 192 669.697 192H662.147V174.5H669.147C670.514 174.5 671.672 174.958 672.622 175.875C673.572 176.792 674.047 177.925 674.047 179.275C674.047 180.825 673.414 182.042 672.147 182.925ZM669.147 176.675H664.472V182.025H669.147C669.881 182.025 670.497 181.767 670.997 181.25C671.497 180.733 671.747 180.1 671.747 179.35C671.747 178.617 671.489 177.992 670.972 177.475C670.472 176.942 669.864 176.675 669.147 176.675ZM669.697 189.825C670.481 189.825 671.139 189.55 671.672 189C672.206 188.45 672.472 187.775 672.472 186.975C672.472 186.192 672.197 185.525 671.647 184.975C671.114 184.425 670.464 184.15 669.697 184.15H664.472V189.825H669.697ZM682.578 184C683.828 184 684.862 184.375 685.678 185.125C686.512 185.858 686.928 186.817 686.928 188C686.928 189.183 686.512 190.15 685.678 190.9C684.862 191.633 683.828 192 682.578 192H677.303V179.5H679.478V184H682.578ZM688.553 179.5H690.728V192H688.553V179.5ZM682.578 189.975C683.195 189.975 683.712 189.8 684.128 189.45C684.562 189.083 684.778 188.6 684.778 188C684.778 187.4 684.562 186.917 684.128 186.55C683.712 186.183 683.195 186 682.578 186H679.478V189.975H682.578ZM704.801 189.925H706.526V195.35H704.376V192H695.001V195.35H692.851V189.925H694.376C695.176 188.825 695.576 187.283 695.576 185.3V179.5H704.801V189.925ZM696.851 189.925H702.651V181.525H697.726V185.3C697.726 187.167 697.435 188.708 696.851 189.925ZM718.732 179.5H720.907V192H718.732V189.85C717.649 191.5 716.074 192.325 714.007 192.325C712.257 192.325 710.766 191.692 709.532 190.425C708.299 189.142 707.682 187.583 707.682 185.75C707.682 183.917 708.299 182.367 709.532 181.1C710.766 179.817 712.257 179.175 714.007 179.175C716.074 179.175 717.649 180 718.732 181.65V179.5ZM714.282 190.225C715.549 190.225 716.607 189.8 717.457 188.95C718.307 188.083 718.732 187.017 718.732 185.75C718.732 184.483 718.307 183.425 717.457 182.575C716.607 181.708 715.549 181.275 714.282 181.275C713.032 181.275 711.982 181.708 711.132 182.575C710.282 183.425 709.857 184.483 709.857 185.75C709.857 187.017 710.282 188.083 711.132 188.95C711.982 189.8 713.032 190.225 714.282 190.225ZM732.078 179.5H734.253V192H732.078V187.5C731.078 187.933 729.953 188.15 728.703 188.15C727.103 188.15 725.861 187.775 724.978 187.025C724.111 186.258 723.678 185.133 723.678 183.65V179.5H725.853V183.525C725.853 184.458 726.103 185.125 726.603 185.525C727.119 185.925 727.869 186.125 728.853 186.125C730.036 186.125 731.111 185.908 732.078 185.475V179.5ZM747.907 179.5H750.082V192H747.907V189.85C746.824 191.5 745.249 192.325 743.182 192.325C741.432 192.325 739.941 191.692 738.707 190.425C737.474 189.142 736.857 187.583 736.857 185.75C736.857 183.917 737.474 182.367 738.707 181.1C739.941 179.817 741.432 179.175 743.182 179.175C745.249 179.175 746.824 180 747.907 181.65V179.5ZM743.457 190.225C744.724 190.225 745.782 189.8 746.632 188.95C747.482 188.083 747.907 187.017 747.907 185.75C747.907 184.483 747.482 183.425 746.632 182.575C745.782 181.708 744.724 181.275 743.457 181.275C742.207 181.275 741.157 181.708 740.307 182.575C739.457 183.425 739.032 184.483 739.032 185.75C739.032 187.017 739.457 188.083 740.307 188.95C741.157 189.8 742.207 190.225 743.457 190.225Z" fill="black"/>
<path d="M199.147 206.925C199.947 207.308 200.581 207.858 201.047 208.575C201.531 209.292 201.772 210.117 201.772 211.05C201.772 212.45 201.281 213.625 200.297 214.575C199.314 215.525 198.114 216 196.697 216H189.147V198.5H196.147C197.514 198.5 198.672 198.958 199.622 199.875C200.572 200.792 201.047 201.925 201.047 203.275C201.047 204.825 200.414 206.042 199.147 206.925ZM196.147 200.675H191.472V206.025H196.147C196.881 206.025 197.497 205.767 197.997 205.25C198.497 204.733 198.747 204.1 198.747 203.35C198.747 202.617 198.489 201.992 197.972 201.475C197.472 200.942 196.864 200.675 196.147 200.675ZM196.697 213.825C197.481 213.825 198.139 213.55 198.672 213C199.206 212.45 199.472 211.775 199.472 210.975C199.472 210.192 199.197 209.525 198.647 208.975C198.114 208.425 197.464 208.15 196.697 208.15H191.472V213.825H196.697ZM209.578 208C210.828 208 211.862 208.375 212.678 209.125C213.512 209.858 213.928 210.817 213.928 212C213.928 213.183 213.512 214.15 212.678 214.9C211.862 215.633 210.828 216 209.578 216H204.303V203.5H206.478V208H209.578ZM215.553 203.5H217.728V216H215.553V203.5ZM209.578 213.975C210.195 213.975 210.712 213.8 211.128 213.45C211.562 213.083 211.778 212.6 211.778 212C211.778 211.4 211.562 210.917 211.128 210.55C210.712 210.183 210.195 210 209.578 210H206.478V213.975H209.578ZM231.801 213.925H233.526V219.35H231.376V216H222.001V219.35H219.851V213.925H221.376C222.176 212.825 222.576 211.283 222.576 209.3V203.5H231.801V213.925ZM223.851 213.925H229.651V205.525H224.726V209.3C224.726 211.167 224.435 212.708 223.851 213.925ZM245.732 203.5H247.907V216H245.732V213.85C244.649 215.5 243.074 216.325 241.007 216.325C239.257 216.325 237.766 215.692 236.532 214.425C235.299 213.142 234.682 211.583 234.682 209.75C234.682 207.917 235.299 206.367 236.532 205.1C237.766 203.817 239.257 203.175 241.007 203.175C243.074 203.175 244.649 204 245.732 205.65V203.5ZM241.282 214.225C242.549 214.225 243.607 213.8 244.457 212.95C245.307 212.083 245.732 211.017 245.732 209.75C245.732 208.483 245.307 207.425 244.457 206.575C243.607 205.708 242.549 205.275 241.282 205.275C240.032 205.275 238.982 205.708 238.132 206.575C237.282 207.425 236.857 208.483 236.857 209.75C236.857 211.017 237.282 212.083 238.132 212.95C238.982 213.8 240.032 214.225 241.282 214.225ZM259.078 203.5H261.253V216H259.078V211.5C258.078 211.933 256.953 212.15 255.703 212.15C254.103 212.15 252.861 211.775 251.978 211.025C251.111 210.258 250.678 209.133 250.678 207.65V203.5H252.853V207.525C252.853 208.458 253.103 209.125 253.603 209.525C254.119 209.925 254.869 210.125 255.853 210.125C257.036 210.125 258.111 209.908 259.078 209.475V203.5ZM274.907 203.5H277.082V216H274.907V213.85C273.824 215.5 272.249 216.325 270.182 216.325C268.432 216.325 266.941 215.692 265.707 214.425C264.474 213.142 263.857 211.583 263.857 209.75C263.857 207.917 264.474 206.367 265.707 205.1C266.941 203.817 268.432 203.175 270.182 203.175C272.249 203.175 273.824 204 274.907 205.65V203.5ZM270.457 214.225C271.724 214.225 272.782 213.8 273.632 212.95C274.482 212.083 274.907 211.017 274.907 209.75C274.907 208.483 274.482 207.425 273.632 206.575C272.782 205.708 271.724 205.275 270.457 205.275C269.207 205.275 268.157 205.708 267.307 206.575C266.457 207.425 266.032 208.483 266.032 209.75C266.032 211.017 266.457 212.083 267.307 212.95C268.157 213.8 269.207 214.225 270.457 214.225Z" fill="black"/>
<path d="M1107.15 74.925C1107.95 75.3083 1108.58 75.8583 1109.05 76.575C1109.53 77.2917 1109.77 78.1167 1109.77 79.05C1109.77 80.45 1109.28 81.625 1108.3 82.575C1107.31 83.525 1106.11 84 1104.7 84H1097.15V66.5H1104.15C1105.51 66.5 1106.67 66.9583 1107.62 67.875C1108.57 68.7917 1109.05 69.925 1109.05 71.275C1109.05 72.825 1108.41 74.0417 1107.15 74.925ZM1104.15 68.675H1099.47V74.025H1104.15C1104.88 74.025 1105.5 73.7667 1106 73.25C1106.5 72.7333 1106.75 72.1 1106.75 71.35C1106.75 70.6167 1106.49 69.9917 1105.97 69.475C1105.47 68.9417 1104.86 68.675 1104.15 68.675ZM1104.7 81.825C1105.48 81.825 1106.14 81.55 1106.67 81C1107.21 80.45 1107.47 79.775 1107.47 78.975C1107.47 78.1917 1107.2 77.525 1106.65 76.975C1106.11 76.425 1105.46 76.15 1104.7 76.15H1099.47V81.825H1104.7ZM1117.58 76C1118.83 76 1119.86 76.375 1120.68 77.125C1121.51 77.8583 1121.93 78.8167 1121.93 80C1121.93 81.1833 1121.51 82.15 1120.68 82.9C1119.86 83.6333 1118.83 84 1117.58 84H1112.3V71.5H1114.48V76H1117.58ZM1123.55 71.5H1125.73V84H1123.55V71.5ZM1117.58 81.975C1118.19 81.975 1118.71 81.8 1119.13 81.45C1119.56 81.0833 1119.78 80.6 1119.78 80C1119.78 79.4 1119.56 78.9167 1119.13 78.55C1118.71 78.1833 1118.19 78 1117.58 78H1114.48V81.975H1117.58ZM1139.8 81.925H1141.53V87.35H1139.38V84H1130V87.35H1127.85V81.925H1129.38C1130.18 80.825 1130.58 79.2833 1130.58 77.3V71.5H1139.8V81.925ZM1131.85 81.925H1137.65V73.525H1132.73V77.3C1132.73 79.1667 1132.43 80.7083 1131.85 81.925ZM1153.73 71.5H1155.91V84H1153.73V81.85C1152.65 83.5 1151.07 84.325 1149.01 84.325C1147.26 84.325 1145.77 83.6917 1144.53 82.425C1143.3 81.1417 1142.68 79.5833 1142.68 77.75C1142.68 75.9167 1143.3 74.3667 1144.53 73.1C1145.77 71.8167 1147.26 71.175 1149.01 71.175C1151.07 71.175 1152.65 72 1153.73 73.65V71.5ZM1149.28 82.225C1150.55 82.225 1151.61 81.8 1152.46 80.95C1153.31 80.0833 1153.73 79.0167 1153.73 77.75C1153.73 76.4833 1153.31 75.425 1152.46 74.575C1151.61 73.7083 1150.55 73.275 1149.28 73.275C1148.03 73.275 1146.98 73.7083 1146.13 74.575C1145.28 75.425 1144.86 76.4833 1144.86 77.75C1144.86 79.0167 1145.28 80.0833 1146.13 80.95C1146.98 81.8 1148.03 82.225 1149.28 82.225ZM1167.08 71.5H1169.25V84H1167.08V79.5C1166.08 79.9333 1164.95 80.15 1163.7 80.15C1162.1 80.15 1160.86 79.775 1159.98 79.025C1159.11 78.2583 1158.68 77.1333 1158.68 75.65V71.5H1160.85V75.525C1160.85 76.4583 1161.1 77.125 1161.6 77.525C1162.12 77.925 1162.87 78.125 1163.85 78.125C1165.04 78.125 1166.11 77.9083 1167.08 77.475V71.5ZM1182.91 71.5H1185.08V84H1182.91V81.85C1181.82 83.5 1180.25 84.325 1178.18 84.325C1176.43 84.325 1174.94 83.6917 1173.71 82.425C1172.47 81.1417 1171.86 79.5833 1171.86 77.75C1171.86 75.9167 1172.47 74.3667 1173.71 73.1C1174.94 71.8167 1176.43 71.175 1178.18 71.175C1180.25 71.175 1181.82 72 1182.91 73.65V71.5ZM1178.46 82.225C1179.72 82.225 1180.78 81.8 1181.63 80.95C1182.48 80.0833 1182.91 79.0167 1182.91 77.75C1182.91 76.4833 1182.48 75.425 1181.63 74.575C1180.78 73.7083 1179.72 73.275 1178.46 73.275C1177.21 73.275 1176.16 73.7083 1175.31 74.575C1174.46 75.425 1174.03 76.4833 1174.03 77.75C1174.03 79.0167 1174.46 80.0833 1175.31 80.95C1176.16 81.8 1177.21 82.225 1178.46 82.225Z" fill="black"/>
<defs>
<filter id="filter0_d_226_67" x="-30" y="0" width="1500" height="829" filterUnits="userSpaceOnUse" color-interpolation-filters="sRGB">
<feFlood flood-opacity="0" result="BackgroundImageFix"/>
<feColorMatrix in="SourceAlpha" type="matrix" values="0 0 0 0 0 0 0 0 0 0 0 0 0 0 0 0 0 0 127 0" result="hardAlpha"/>
<feOffset dy="4"/>
<feGaussianBlur stdDeviation="15"/>
<feComposite in2="hardAlpha" operator="out"/>
<feColorMatrix type="matrix" values="0 0 0 0 0 0 0 0 0 0 0 0 0 0 0 0 0 0 0.25 0"/>
<feBlend mode="normal" in2="BackgroundImageFix" result="effect1_dropShadow_226_67"/>
<feBlend mode="normal" in="SourceGraphic" in2="effect1_dropShadow_226_67" result="shape"/>
</filter>
<filter id="filter1_d_226_67" x="20" y="162.012" width="428" height="221.988" filterUnits="userSpaceOnUse" color-interpolation-filters="sRGB">
<feFlood flood-opacity="0" result="BackgroundImageFix"/>
<feColorMatrix in="SourceAlpha" type="matrix" values="0 0 0 0 0 0 0 0 0 0 0 0 0 0 0 0 0 0 127 0" result="hardAlpha"/>
<feOffset dy="4"/>
<feGaussianBlur stdDeviation="15"/>
<feComposite in2="hardAlpha" operator="out"/>
<feColorMatrix type="matrix" values="0 0 0 0 0.737255 0 0 0 0 0.737255 0 0 0 0 0.737255 0 0 0 0.25 0"/>
<feBlend mode="normal" in2="BackgroundImageFix" result="effect1_dropShadow_226_67"/>
<feBlend mode="normal" in="SourceGraphic" in2="effect1_dropShadow_226_67" result="shape"/>
</filter>
<filter id="filter2_d_226_67" x="604" y="155" width="205" height="237" filterUnits="userSpaceOnUse" color-interpolation-filters="sRGB">
<feFlood flood-opacity="0" result="BackgroundImageFix"/>
<feColorMatrix in="SourceAlpha" type="matrix" values="0 0 0 0 0 0 0 0 0 0 0 0 0 0 0 0 0 0 127 0" result="hardAlpha"/>
<feOffset dy="4"/>
<feGaussianBlur stdDeviation="5"/>
<feComposite in2="hardAlpha" operator="out"/>
<feColorMatrix type="matrix" values="0 0 0 0 0.738187 0 0 0 0 0.738187 0 0 0 0 0.738187 0 0 0 0.25 0"/>
<feBlend mode="normal" in2="BackgroundImageFix" result="effect1_dropShadow_226_67"/>
<feBlend mode="normal" in="SourceGraphic" in2="effect1_dropShadow_226_67" result="shape"/>
</filter>
<filter id="filter3_d_226_67" x="897" y="47" width="489" height="61" filterUnits="userSpaceOnUse" color-interpolation-filters="sRGB">
<feFlood flood-opacity="0" result="BackgroundImageFix"/>
<feColorMatrix in="SourceAlpha" type="matrix" values="0 0 0 0 0 0 0 0 0 0 0 0 0 0 0 0 0 0 127 0" result="hardAlpha"/>
<feOffset dy="4"/>
<feGaussianBlur stdDeviation="5"/>
<feComposite in2="hardAlpha" operator="out"/>
<feColorMatrix type="matrix" values="0 0 0 0 0.738187 0 0 0 0 0.738187 0 0 0 0 0.738187 0 0 0 0.25 0"/>
<feBlend mode="normal" in2="BackgroundImageFix" result="effect1_dropShadow_226_67"/>
<feBlend mode="normal" in="SourceGraphic" in2="effect1_dropShadow_226_67" result="shape"/>
</filter>
</defs>
</svg>
