<svg width="1440" height="889" viewBox="0 0 1440 889" fill="none" xmlns="http://www.w3.org/2000/svg">
<rect width="1440" height="768.777" transform="translate(0 56)" fill="#D9D9D9"/>
<g filter="url(#filter0_d_226_264)">
<path d="M479.847 825H10C4.47715 825 0 820.523 0 815V173.069C0 167.546 4.47714 163.069 9.99999 163.069H479.847C485.369 163.069 489.847 167.546 489.847 173.069V418.98C489.847 424.503 494.324 428.98 499.847 428.98H568.753C574.276 428.98 578.753 424.503 578.753 418.98V173.069C578.753 167.546 583.23 163.069 588.753 163.069H840.062C845.585 163.069 850.062 158.592 850.062 153.069V66C850.062 60.4772 854.539 56 860.062 56H1430C1435.52 56 1440 60.4772 1440 66V514.783C1440 520.259 1435.59 524.717 1430.12 524.782L811.474 532.137C805.998 532.202 801.593 536.659 801.593 542.136V815C801.593 820.523 797.116 825 791.593 825H588.753C583.23 825 578.753 820.523 578.753 815V681.851C578.753 676.328 574.276 671.851 568.753 671.851H499.847C494.324 671.851 489.847 676.328 489.847 681.851V815C489.847 820.523 485.369 825 479.847 825Z" fill="white"/>
</g>
<path d="M96.7403 380H58C53.5817 380 50 376.418 50 372V226.528C50 222.115 53.5746 218.535 57.9883 218.528L409.988 218.012C414.411 218.005 418 221.589 418 226.012V231.5V372.041C418 376.459 414.418 380 410 380H370.694C366.284 380 362.705 376.43 362.694 372.019L362.445 268.441C362.434 264.03 358.856 260.46 354.445 260.46H113.127C108.72 260.46 105.143 264.024 105.127 268.43L104.74 372.03C104.724 376.436 101.147 380 96.7403 380Z" fill="black"/>
<path d="M1376 91V116C1376 120.418 1372.42 124 1368 124L915 124C910.582 124 907 120.418 907 116V91C907 86.5817 910.582 83 915 83L1368 83C1372.42 83 1376 86.5817 1376 91Z" fill="black"/>
<path d="M55 407H411" stroke="#404040" stroke-width="35" stroke-linecap="round"/>
<path d="M1088.32 151.99L1366.57 152.532" stroke="#404040" stroke-width="35" stroke-linecap="round"/>
<path d="M1144.97 146.4H1146.23V159H1144.97V153.114H1138.13V159H1136.87V146.4H1138.13V151.926H1144.97V146.4ZM1155.48 150H1156.48V159H1155.3V152.07L1149.93 159H1148.92V150H1150.11V156.93L1155.48 150ZM1163.64 154.374C1164.68 154.77 1165.21 155.49 1165.21 156.534C1165.21 157.278 1164.91 157.914 1164.32 158.442C1163.75 158.958 1162.92 159.216 1161.84 159.216C1160.03 159.216 1158.84 158.496 1158.28 157.056L1159.28 156.462C1159.66 157.53 1160.51 158.064 1161.84 158.064C1162.54 158.064 1163.07 157.914 1163.44 157.614C1163.83 157.314 1164.02 156.93 1164.02 156.462C1164.02 156.042 1163.86 155.7 1163.55 155.436C1163.24 155.172 1162.82 155.04 1162.29 155.04H1160.98V153.888H1161.93C1162.45 153.888 1162.85 153.762 1163.14 153.51C1163.44 153.246 1163.59 152.886 1163.59 152.43C1163.59 151.998 1163.41 151.644 1163.06 151.368C1162.72 151.08 1162.25 150.936 1161.66 150.936C1160.53 150.936 1159.78 151.386 1159.41 152.286L1158.42 151.71C1159.02 150.426 1160.1 149.784 1161.66 149.784C1162.61 149.784 1163.36 150.036 1163.93 150.54C1164.49 151.032 1164.77 151.638 1164.77 152.358C1164.77 153.282 1164.4 153.954 1163.64 154.374ZM1174.28 159H1172.7L1168.2 154.662V159H1167.01V150H1168.2V153.978L1172.48 150H1174.1L1169.46 154.32L1174.28 159ZM1182.75 150H1183.94V159H1182.75V157.236C1181.92 158.556 1180.71 159.216 1179.11 159.216C1177.83 159.216 1176.73 158.76 1175.82 157.848C1174.92 156.936 1174.47 155.82 1174.47 154.5C1174.47 153.18 1174.92 152.064 1175.82 151.152C1176.73 150.24 1177.83 149.784 1179.11 149.784C1180.71 149.784 1181.92 150.444 1182.75 151.764V150ZM1176.68 157.038C1177.37 157.722 1178.21 158.064 1179.2 158.064C1180.2 158.064 1181.04 157.722 1181.72 157.038C1182.41 156.342 1182.75 155.496 1182.75 154.5C1182.75 153.504 1182.41 152.664 1181.72 151.98C1181.04 151.284 1180.2 150.936 1179.2 150.936C1178.21 150.936 1177.37 151.284 1176.68 151.98C1176 152.664 1175.66 153.504 1175.66 154.5C1175.66 155.496 1176 156.342 1176.68 157.038ZM1192.93 150V159H1191.75V155.544H1190.2L1187.43 159H1185.91L1188.76 155.508C1188.04 155.4 1187.44 155.1 1186.98 154.608C1186.51 154.116 1186.27 153.51 1186.27 152.79C1186.27 151.974 1186.56 151.308 1187.14 150.792C1187.73 150.264 1188.44 150 1189.28 150H1192.93ZM1189.28 154.428H1191.75V151.152H1189.28C1188.78 151.152 1188.34 151.302 1187.98 151.602C1187.64 151.902 1187.46 152.298 1187.46 152.79C1187.46 153.282 1187.64 153.678 1187.98 153.978C1188.34 154.278 1188.78 154.428 1189.28 154.428ZM1204.6 154.374C1205.64 154.77 1206.16 155.49 1206.16 156.534C1206.16 157.278 1205.87 157.914 1205.28 158.442C1204.71 158.958 1203.88 159.216 1202.8 159.216C1200.99 159.216 1199.8 158.496 1199.23 157.056L1200.24 156.462C1200.61 157.53 1201.47 158.064 1202.8 158.064C1203.49 158.064 1204.03 157.914 1204.4 157.614C1204.78 157.314 1204.98 156.93 1204.98 156.462C1204.98 156.042 1204.82 155.7 1204.51 155.436C1204.2 155.172 1203.78 155.04 1203.25 155.04H1201.93V153.888H1202.89C1203.4 153.888 1203.81 153.762 1204.09 153.51C1204.39 153.246 1204.54 152.886 1204.54 152.43C1204.54 151.998 1204.37 151.644 1204.02 151.368C1203.67 151.08 1203.21 150.936 1202.62 150.936C1201.49 150.936 1200.74 151.386 1200.37 152.286L1199.38 151.71C1199.98 150.426 1201.06 149.784 1202.62 149.784C1203.57 149.784 1204.32 150.036 1204.89 150.54C1205.45 151.032 1205.73 151.638 1205.73 152.358C1205.73 153.282 1205.35 153.954 1204.6 154.374ZM1215.71 150H1216.9V159H1215.71V157.236C1214.88 158.556 1213.67 159.216 1212.07 159.216C1210.79 159.216 1209.69 158.76 1208.78 157.848C1207.88 156.936 1207.43 155.82 1207.43 154.5C1207.43 153.18 1207.88 152.064 1208.78 151.152C1209.69 150.24 1210.79 149.784 1212.07 149.784C1213.67 149.784 1214.88 150.444 1215.71 151.764V150ZM1209.64 157.038C1210.33 157.722 1211.17 158.064 1212.16 158.064C1213.16 158.064 1214 157.722 1214.68 157.038C1215.37 156.342 1215.71 155.496 1215.71 154.5C1215.71 153.504 1215.37 152.664 1214.68 151.98C1214 151.284 1213.16 150.936 1212.16 150.936C1211.17 150.936 1210.33 151.284 1209.64 151.98C1208.96 152.664 1208.62 153.504 1208.62 154.5C1208.62 155.496 1208.96 156.342 1209.64 157.038ZM1225.17 150V151.152H1220.6V159H1219.41V150H1225.17ZM1231.44 149.784C1232.73 149.784 1233.82 150.24 1234.72 151.152C1235.63 152.064 1236.09 153.18 1236.09 154.5C1236.09 155.82 1235.63 156.936 1234.72 157.848C1233.82 158.76 1232.73 159.216 1231.44 159.216C1229.85 159.216 1228.64 158.556 1227.81 157.236V162.6H1226.62V150H1227.81V151.764C1228.64 150.444 1229.85 149.784 1231.44 149.784ZM1228.83 157.038C1229.52 157.722 1230.36 158.064 1231.35 158.064C1232.35 158.064 1233.19 157.722 1233.87 157.038C1234.56 156.342 1234.9 155.496 1234.9 154.5C1234.9 153.504 1234.56 152.664 1233.87 151.98C1233.19 151.284 1232.35 150.936 1231.35 150.936C1230.36 150.936 1229.52 151.284 1228.83 151.98C1228.15 152.664 1227.81 153.504 1227.81 154.5C1227.81 155.496 1228.15 156.342 1228.83 157.038ZM1244.19 150H1245.45L1241.6 159.828C1241.25 160.716 1240.75 161.412 1240.11 161.916C1239.47 162.432 1238.76 162.66 1237.96 162.6V161.484C1239.04 161.604 1239.87 160.98 1240.43 159.612L1240.66 159.054L1236.63 150H1237.89L1241.28 157.542L1244.19 150ZM1257.22 159H1255.78L1252.11 154.662V159H1250.92V154.662L1247.25 159H1245.81L1249.84 154.32L1245.99 150H1247.43L1250.92 153.996V150H1252.11V153.996L1255.6 150H1257.04L1253.19 154.32L1257.22 159ZM1262.28 149.784C1263.61 149.784 1264.68 150.258 1265.5 151.206C1266.33 152.142 1266.74 153.252 1266.74 154.536C1266.74 154.668 1266.73 154.854 1266.71 155.094H1258.8C1258.92 156.006 1259.31 156.732 1259.96 157.272C1260.62 157.8 1261.43 158.064 1262.39 158.064C1263.07 158.064 1263.66 157.926 1264.15 157.65C1264.65 157.362 1265.03 156.99 1265.28 156.534L1266.33 157.146C1265.93 157.782 1265.39 158.286 1264.71 158.658C1264.02 159.03 1263.24 159.216 1262.37 159.216C1260.95 159.216 1259.8 158.772 1258.91 157.884C1258.02 156.996 1257.58 155.868 1257.58 154.5C1257.58 153.156 1258.02 152.034 1258.89 151.134C1259.77 150.234 1260.9 149.784 1262.28 149.784ZM1262.28 150.936C1261.34 150.936 1260.56 151.218 1259.92 151.782C1259.3 152.334 1258.92 153.054 1258.8 153.942H1265.52C1265.4 152.994 1265.03 152.256 1264.42 151.728C1263.81 151.2 1263.09 150.936 1262.28 150.936ZM1275 150H1276.19V159H1275V155.076H1269.82V159H1268.63V150H1269.82V153.924H1275V150ZM1285.08 150H1286.26V159H1285.08V155.076H1279.89V159H1278.7V150H1279.89V153.924H1285.08V150ZM1296.32 157.866C1295.41 158.766 1294.29 159.216 1292.97 159.216C1291.65 159.216 1290.53 158.766 1289.6 157.866C1288.69 156.954 1288.24 155.832 1288.24 154.5C1288.24 153.168 1288.69 152.052 1289.6 151.152C1290.53 150.24 1291.65 149.784 1292.97 149.784C1294.29 149.784 1295.41 150.24 1296.32 151.152C1297.24 152.052 1297.7 153.168 1297.7 154.5C1297.7 155.832 1297.24 156.954 1296.32 157.866ZM1290.45 157.038C1291.13 157.722 1291.97 158.064 1292.97 158.064C1293.97 158.064 1294.81 157.722 1295.49 157.038C1296.17 156.342 1296.52 155.496 1296.52 154.5C1296.52 153.504 1296.17 152.664 1295.49 151.98C1294.81 151.284 1293.97 150.936 1292.97 150.936C1291.97 150.936 1291.13 151.284 1290.45 151.98C1289.77 152.664 1289.42 153.504 1289.42 154.5C1289.42 155.496 1289.77 156.342 1290.45 157.038ZM1303.89 159.216C1302.53 159.216 1301.4 158.766 1300.5 157.866C1299.6 156.954 1299.15 155.832 1299.15 154.5C1299.15 153.168 1299.6 152.052 1300.5 151.152C1301.4 150.24 1302.53 149.784 1303.89 149.784C1304.77 149.784 1305.57 150 1306.28 150.432C1306.99 150.852 1307.5 151.422 1307.83 152.142L1306.86 152.7C1306.62 152.16 1306.23 151.734 1305.69 151.422C1305.16 151.098 1304.56 150.936 1303.89 150.936C1302.89 150.936 1302.05 151.284 1301.37 151.98C1300.68 152.664 1300.34 153.504 1300.34 154.5C1300.34 155.496 1300.68 156.342 1301.37 157.038C1302.05 157.722 1302.89 158.064 1303.89 158.064C1304.56 158.064 1305.16 157.908 1305.69 157.596C1306.21 157.272 1306.63 156.84 1306.93 156.3L1307.92 156.876C1307.55 157.596 1307 158.166 1306.28 158.586C1305.56 159.006 1304.76 159.216 1303.89 159.216ZM1315.93 150V151.152H1312.74V159H1311.55V151.152H1308.37V150H1315.93ZM1321.03 153.42C1321.87 153.42 1322.58 153.684 1323.15 154.212C1323.74 154.728 1324.04 155.394 1324.04 156.21C1324.04 157.026 1323.74 157.698 1323.15 158.226C1322.58 158.742 1321.87 159 1321.03 159H1317.38V150H1318.56V153.42H1321.03ZM1321.03 157.848C1321.53 157.848 1321.96 157.698 1322.31 157.398C1322.67 157.098 1322.85 156.702 1322.85 156.21C1322.85 155.718 1322.67 155.322 1322.31 155.022C1321.96 154.722 1321.53 154.572 1321.03 154.572H1318.56V157.848H1321.03Z" fill="white"/>
<g filter="url(#filter1_d_226_264)">
<path d="M652.571 393H624C619.582 393 616 389.418 616 385V183C616 178.582 619.582 175 624 175H792C796.418 175 800 178.582 800 183V208.86C800 213.279 796.418 216.86 792 216.86H668.571C664.153 216.86 660.571 220.442 660.571 224.86V385C660.571 389.418 656.99 393 652.571 393Z" fill="black"/>
</g>
<path d="M623 435L815 435" stroke="#404040" stroke-width="35" stroke-linecap="round"/>
<path d="M623.712 443.234C621.804 443.234 620.226 442.604 618.978 441.344C617.742 440.084 617.124 438.536 617.124 436.7C617.124 434.864 617.742 433.316 618.978 432.056C620.226 430.796 621.804 430.166 623.712 430.166C624.864 430.166 625.92 430.442 626.88 430.994C627.852 431.546 628.608 432.29 629.148 433.226L627.69 434.072C627.33 433.376 626.79 432.824 626.07 432.416C625.362 431.996 624.576 431.786 623.712 431.786C622.26 431.786 621.072 432.254 620.148 433.19C619.236 434.126 618.78 435.296 618.78 436.7C618.78 438.092 619.236 439.256 620.148 440.192C621.072 441.128 622.26 441.596 623.712 441.596C624.576 441.596 625.362 441.392 626.07 440.984C626.79 440.564 627.33 440.012 627.69 439.328L629.148 440.156C628.62 441.092 627.87 441.842 626.898 442.406C625.926 442.958 624.864 443.234 623.712 443.234ZM635.903 433.766C637.163 433.766 638.237 434.228 639.125 435.152C640.013 436.064 640.457 437.18 640.457 438.5C640.457 439.82 640.013 440.942 639.125 441.866C638.237 442.778 637.163 443.234 635.903 443.234C634.415 443.234 633.281 442.64 632.501 441.452V446.6H630.935V434H632.501V435.548C633.281 434.36 634.415 433.766 635.903 433.766ZM635.705 441.722C636.605 441.722 637.361 441.416 637.973 440.804C638.585 440.18 638.891 439.412 638.891 438.5C638.891 437.588 638.585 436.826 637.973 436.214C637.361 435.59 636.605 435.278 635.705 435.278C634.793 435.278 634.031 435.59 633.419 436.214C632.807 436.826 632.501 437.588 632.501 438.5C632.501 439.412 632.807 440.18 633.419 440.804C634.031 441.416 634.793 441.722 635.705 441.722ZM643.424 439.22C643.58 440.024 643.946 440.648 644.522 441.092C645.11 441.536 645.83 441.758 646.682 441.758C647.87 441.758 648.734 441.32 649.274 440.444L650.606 441.2C649.73 442.556 648.41 443.234 646.646 443.234C645.218 443.234 644.054 442.79 643.154 441.902C642.266 441.002 641.822 439.868 641.822 438.5C641.822 437.144 642.26 436.016 643.136 435.116C644.012 434.216 645.146 433.766 646.538 433.766C647.858 433.766 648.932 434.234 649.76 435.17C650.6 436.094 651.02 437.21 651.02 438.518C651.02 438.746 651.002 438.98 650.966 439.22H643.424ZM646.538 435.242C645.698 435.242 645.002 435.482 644.45 435.962C643.898 436.43 643.556 437.06 643.424 437.852H649.436C649.304 437 648.968 436.352 648.428 435.908C647.888 435.464 647.258 435.242 646.538 435.242ZM660.208 441.506H661.45V445.412H659.902V443H653.152V445.412H651.604V441.506H652.702C653.278 440.714 653.566 439.604 653.566 438.176V434H660.208V441.506ZM654.484 441.506H658.66V435.458H655.114V438.176C655.114 439.52 654.904 440.63 654.484 441.506ZM669.366 434H670.932V443H669.366V439.238H664.704V443H663.138V434H664.704V437.744H669.366V434ZM680.048 434V443H678.5V439.76H677.186L674.666 443H672.758L675.386 439.67C674.714 439.502 674.168 439.166 673.748 438.662C673.328 438.158 673.118 437.57 673.118 436.898C673.118 436.07 673.412 435.38 674 434.828C674.588 434.276 675.326 434 676.214 434H680.048ZM676.268 438.356H678.5V435.458H676.268C675.824 435.458 675.446 435.59 675.134 435.854C674.822 436.118 674.666 436.472 674.666 436.916C674.666 437.348 674.822 437.696 675.134 437.96C675.446 438.224 675.824 438.356 676.268 438.356ZM689.153 434V443H687.605V439.76H686.291L683.771 443H681.863L684.491 439.67C683.819 439.502 683.273 439.166 682.853 438.662C682.433 438.158 682.223 437.57 682.223 436.898C682.223 436.07 682.517 435.38 683.105 434.828C683.693 434.276 684.431 434 685.319 434H689.153ZM685.373 438.356H687.605V435.458H685.373C684.929 435.458 684.551 435.59 684.239 435.854C683.927 436.118 683.771 436.472 683.771 436.916C683.771 437.348 683.927 437.696 684.239 437.96C684.551 438.224 684.929 438.356 685.373 438.356ZM700.887 438.392C701.883 438.8 702.381 439.514 702.381 440.534C702.381 441.29 702.081 441.932 701.481 442.46C700.881 442.976 700.029 443.234 698.925 443.234C697.125 443.234 695.919 442.514 695.307 441.074L696.621 440.3C696.969 441.284 697.743 441.776 698.943 441.776C699.543 441.776 700.005 441.65 700.329 441.398C700.665 441.134 700.833 440.798 700.833 440.39C700.833 440.03 700.695 439.736 700.419 439.508C700.155 439.28 699.795 439.166 699.339 439.166H698.025V437.744H698.997C699.453 437.744 699.807 437.636 700.059 437.42C700.311 437.192 700.437 436.886 700.437 436.502C700.437 436.118 700.287 435.806 699.987 435.566C699.699 435.326 699.297 435.206 698.781 435.206C697.773 435.206 697.089 435.632 696.729 436.484L695.451 435.746C696.087 434.426 697.197 433.766 698.781 433.766C699.765 433.766 700.539 434.018 701.103 434.522C701.679 435.026 701.967 435.644 701.967 436.376C701.967 437.288 701.607 437.96 700.887 438.392ZM711.53 434H713.096V443H711.53V441.452C710.75 442.64 709.616 443.234 708.128 443.234C706.868 443.234 705.794 442.778 704.906 441.866C704.018 440.942 703.574 439.82 703.574 438.5C703.574 437.18 704.018 436.064 704.906 435.152C705.794 434.228 706.868 433.766 708.128 433.766C709.616 433.766 710.75 434.36 711.53 435.548V434ZM708.326 441.722C709.238 441.722 710 441.416 710.612 440.804C711.224 440.18 711.53 439.412 711.53 438.5C711.53 437.588 711.224 436.826 710.612 436.214C710 435.59 709.238 435.278 708.326 435.278C707.426 435.278 706.67 435.59 706.058 436.214C705.446 436.826 705.14 437.588 705.14 438.5C705.14 439.412 705.446 440.18 706.058 440.804C706.67 441.416 707.426 441.722 708.326 441.722ZM721.372 434V435.512H717.034V443H715.468V434H721.372ZM727.714 433.766C728.974 433.766 730.048 434.228 730.936 435.152C731.824 436.064 732.268 437.18 732.268 438.5C732.268 439.82 731.824 440.942 730.936 441.866C730.048 442.778 728.974 443.234 727.714 443.234C726.226 443.234 725.092 442.64 724.312 441.452V446.6H722.746V434H724.312V435.548C725.092 434.36 726.226 433.766 727.714 433.766ZM727.516 441.722C728.416 441.722 729.172 441.416 729.784 440.804C730.396 440.18 730.702 439.412 730.702 438.5C730.702 437.588 730.396 436.826 729.784 436.214C729.172 435.59 728.416 435.278 727.516 435.278C726.604 435.278 725.842 435.59 725.23 436.214C724.618 436.826 724.312 437.588 724.312 438.5C724.312 439.412 724.618 440.18 725.23 440.804C725.842 441.416 726.604 441.722 727.516 441.722ZM740.067 434H741.741L738.069 443.558C737.685 444.578 737.145 445.352 736.449 445.88C735.753 446.42 734.961 446.66 734.073 446.6V445.142C735.177 445.226 735.987 444.626 736.503 443.342L736.647 443.018L732.741 434H734.397L737.475 441.056L740.067 434ZM753.925 443H752.089L748.723 438.734V443H747.175V438.734L743.809 443H741.991L745.753 438.356L742.171 434H743.989L747.175 437.978V434H748.723V437.978L751.909 434H753.745L750.145 438.356L753.925 443ZM755.801 439.22C755.957 440.024 756.323 440.648 756.899 441.092C757.487 441.536 758.207 441.758 759.059 441.758C760.247 441.758 761.111 441.32 761.651 440.444L762.983 441.2C762.107 442.556 760.787 443.234 759.023 443.234C757.595 443.234 756.431 442.79 755.531 441.902C754.643 441.002 754.199 439.868 754.199 438.5C754.199 437.144 754.637 436.016 755.513 435.116C756.389 434.216 757.523 433.766 758.915 433.766C760.235 433.766 761.309 434.234 762.137 435.17C762.977 436.094 763.397 437.21 763.397 438.518C763.397 438.746 763.379 438.98 763.343 439.22H755.801ZM758.915 435.242C758.075 435.242 757.379 435.482 756.827 435.962C756.275 436.43 755.933 437.06 755.801 437.852H761.813C761.681 437 761.345 436.352 760.805 435.908C760.265 435.464 759.635 435.242 758.915 435.242ZM771.425 434H772.991V443H771.425V439.238H766.763V443H765.197V434H766.763V437.744H771.425V434ZM781.603 434H783.169V443H781.603V439.238H776.941V443H775.375V434H776.941V437.744H781.603V434ZM793.148 441.866C792.224 442.778 791.102 443.234 789.782 443.234C788.462 443.234 787.34 442.778 786.416 441.866C785.504 440.954 785.048 439.832 785.048 438.5C785.048 437.168 785.504 436.046 786.416 435.134C787.34 434.222 788.462 433.766 789.782 433.766C791.102 433.766 792.224 434.222 793.148 435.134C794.072 436.046 794.534 437.168 794.534 438.5C794.534 439.832 794.072 440.954 793.148 441.866ZM789.782 441.704C790.682 441.704 791.438 441.398 792.05 440.786C792.662 440.174 792.968 439.412 792.968 438.5C792.968 437.588 792.662 436.826 792.05 436.214C791.438 435.602 790.682 435.296 789.782 435.296C788.894 435.296 788.144 435.602 787.532 436.214C786.92 436.826 786.614 437.588 786.614 438.5C786.614 439.412 786.92 440.174 787.532 440.786C788.144 441.398 788.894 441.704 789.782 441.704ZM800.61 443.234C799.254 443.234 798.126 442.784 797.226 441.884C796.326 440.972 795.876 439.844 795.876 438.5C795.876 437.156 796.326 436.034 797.226 435.134C798.126 434.222 799.254 433.766 800.61 433.766C801.498 433.766 802.296 433.982 803.004 434.414C803.712 434.834 804.24 435.404 804.588 436.124L803.274 436.88C803.046 436.4 802.692 436.016 802.212 435.728C801.744 435.44 801.21 435.296 800.61 435.296C799.71 435.296 798.954 435.602 798.342 436.214C797.742 436.826 797.442 437.588 797.442 438.5C797.442 439.4 797.742 440.156 798.342 440.768C798.954 441.38 799.71 441.686 800.61 441.686C801.21 441.686 801.75 441.548 802.23 441.272C802.71 440.984 803.076 440.6 803.328 440.12L804.66 440.894C804.276 441.602 803.724 442.172 803.004 442.604C802.284 443.024 801.486 443.234 800.61 443.234ZM812.762 434V435.512H809.702V443H808.136V435.512H805.058V434H812.762ZM817.932 437.24C818.832 437.24 819.576 437.51 820.164 438.05C820.764 438.578 821.064 439.268 821.064 440.12C821.064 440.972 820.764 441.668 820.164 442.208C819.576 442.736 818.832 443 817.932 443H814.134V434H815.7V437.24H817.932ZM817.932 441.542C818.376 441.542 818.748 441.416 819.048 441.164C819.36 440.9 819.516 440.552 819.516 440.12C819.516 439.688 819.36 439.34 819.048 439.076C818.748 438.812 818.376 438.68 817.932 438.68H815.7V441.542H817.932Z" fill="white"/>
<path d="M138.937 408.484C139.993 409.108 140.521 410.05 140.521 411.31C140.521 412.426 140.137 413.32 139.369 413.992C138.601 414.664 137.575 415 136.291 415H130.981V402.4H135.949C137.209 402.4 138.217 402.724 138.973 403.372C139.729 404.008 140.107 404.878 140.107 405.982C140.107 407.038 139.717 407.872 138.937 408.484ZM135.859 405.28H134.203V407.26H135.859C136.147 407.26 136.387 407.176 136.579 407.008C136.783 406.828 136.885 406.582 136.885 406.27C136.885 405.97 136.789 405.73 136.597 405.55C136.405 405.37 136.159 405.28 135.859 405.28ZM136.201 412.12C136.525 412.12 136.789 412.024 136.993 411.832C137.197 411.628 137.299 411.37 137.299 411.058C137.299 410.734 137.197 410.476 136.993 410.284C136.789 410.092 136.525 409.996 136.201 409.996H134.203V412.12H136.201ZM146.147 408.538C147.227 408.538 148.085 408.832 148.721 409.42C149.357 409.996 149.675 410.776 149.675 411.76C149.675 412.756 149.357 413.548 148.721 414.136C148.097 414.712 147.239 415 146.147 415H141.683V406H144.671V408.538H146.147ZM150.413 406H153.401V415H150.413V406ZM145.967 412.498C146.207 412.498 146.399 412.432 146.543 412.3C146.687 412.168 146.759 411.988 146.759 411.76C146.759 411.544 146.687 411.37 146.543 411.238C146.399 411.106 146.207 411.04 145.967 411.04H144.671V412.498H145.967ZM159.469 415.252C158.101 415.252 156.961 414.796 156.049 413.884C155.137 412.972 154.681 411.844 154.681 410.5C154.681 409.156 155.137 408.028 156.049 407.116C156.961 406.204 158.101 405.748 159.469 405.748C160.357 405.748 161.161 405.958 161.881 406.378C162.613 406.798 163.177 407.362 163.573 408.07L161.017 409.546C160.693 408.958 160.171 408.664 159.451 408.664C158.947 408.664 158.527 408.838 158.191 409.186C157.855 409.522 157.687 409.96 157.687 410.5C157.687 411.04 157.855 411.484 158.191 411.832C158.527 412.168 158.947 412.336 159.451 412.336C160.195 412.336 160.717 412.036 161.017 411.436L163.573 412.912C163.177 413.632 162.613 414.202 161.881 414.622C161.161 415.042 160.357 415.252 159.469 415.252ZM168.733 415.252C167.401 415.252 166.267 414.796 165.331 413.884C164.395 412.96 163.927 411.832 163.927 410.5C163.927 409.168 164.395 408.046 165.331 407.134C166.267 406.21 167.401 405.748 168.733 405.748C170.077 405.748 171.211 406.21 172.135 407.134C173.071 408.046 173.539 409.168 173.539 410.5C173.539 411.832 173.071 412.96 172.135 413.884C171.211 414.796 170.077 415.252 168.733 415.252ZM168.733 412.372C169.261 412.372 169.693 412.198 170.029 411.85C170.377 411.502 170.551 411.052 170.551 410.5C170.551 409.948 170.377 409.498 170.029 409.15C169.693 408.802 169.261 408.628 168.733 408.628C168.217 408.628 167.785 408.802 167.437 409.15C167.101 409.498 166.933 409.948 166.933 410.5C166.933 411.052 167.101 411.502 167.437 411.85C167.785 412.198 168.217 412.372 168.733 412.372ZM183.745 415H180.397L177.841 411.166V415H174.853V406H177.841V409.762L180.163 406H183.619L180.595 410.5L183.745 415ZM190.383 406H193.371V415H190.383V414.172C189.771 414.892 188.919 415.252 187.827 415.252C186.627 415.252 185.619 414.802 184.803 413.902C183.999 412.99 183.597 411.856 183.597 410.5C183.597 409.144 183.999 408.016 184.803 407.116C185.619 406.204 186.627 405.748 187.827 405.748C188.919 405.748 189.771 406.108 190.383 406.828V406ZM187.125 411.922C187.473 412.282 187.929 412.462 188.493 412.462C189.057 412.462 189.513 412.282 189.861 411.922C190.209 411.562 190.383 411.088 190.383 410.5C190.383 409.912 190.209 409.438 189.861 409.078C189.513 408.718 189.057 408.538 188.493 408.538C187.929 408.538 187.473 408.718 187.125 409.078C186.777 409.438 186.603 409.912 186.603 410.5C186.603 411.088 186.777 411.562 187.125 411.922ZM202.951 406V415H199.999V412.444H199.585L197.875 415H194.473L196.579 411.994C196.063 411.706 195.661 411.322 195.373 410.842C195.097 410.35 194.959 409.822 194.959 409.258C194.959 408.322 195.265 407.548 195.877 406.936C196.501 406.312 197.341 406 198.397 406H202.951ZM198.721 408.52C198.469 408.52 198.265 408.592 198.109 408.736C197.953 408.868 197.875 409.06 197.875 409.312C197.875 409.552 197.953 409.738 198.109 409.87C198.265 410.002 198.469 410.068 198.721 410.068H199.999V408.52H198.721ZM214.449 410.41C215.337 410.878 215.781 411.592 215.781 412.552C215.781 413.344 215.439 413.998 214.755 414.514C214.071 415.018 213.147 415.27 211.983 415.27C210.099 415.27 208.797 414.55 208.077 413.11L210.417 411.742C210.693 412.438 211.197 412.786 211.929 412.786C212.181 412.786 212.391 412.732 212.559 412.624C212.727 412.516 212.811 412.366 212.811 412.174C212.811 411.802 212.565 411.616 212.073 411.616H210.993V409.276H211.929C212.373 409.276 212.595 409.096 212.595 408.736C212.595 408.352 212.331 408.16 211.803 408.16C211.191 408.16 210.759 408.484 210.507 409.132L208.167 407.854C208.959 406.45 210.219 405.748 211.947 405.748C212.991 405.748 213.837 406.012 214.485 406.54C215.133 407.056 215.457 407.692 215.457 408.448C215.457 409.324 215.121 409.978 214.449 410.41ZM223.324 406H226.312V415H223.324V414.172C222.712 414.892 221.86 415.252 220.768 415.252C219.568 415.252 218.56 414.802 217.744 413.902C216.94 412.99 216.538 411.856 216.538 410.5C216.538 409.144 216.94 408.016 217.744 407.116C218.56 406.204 219.568 405.748 220.768 405.748C221.86 405.748 222.712 406.108 223.324 406.828V406ZM220.066 411.922C220.414 412.282 220.87 412.462 221.434 412.462C221.998 412.462 222.454 412.282 222.802 411.922C223.15 411.562 223.324 411.088 223.324 410.5C223.324 409.912 223.15 409.438 222.802 409.078C222.454 408.718 221.998 408.538 221.434 408.538C220.87 408.538 220.414 408.718 220.066 409.078C219.718 409.438 219.544 409.912 219.544 410.5C219.544 411.088 219.718 411.562 220.066 411.922ZM234.507 406V408.862H231.033V415H228.045V406H234.507ZM241.095 405.748C242.295 405.748 243.297 406.204 244.101 407.116C244.917 408.016 245.325 409.144 245.325 410.5C245.325 411.856 244.917 412.99 244.101 413.902C243.297 414.802 242.295 415.252 241.095 415.252C240.003 415.252 239.151 414.892 238.539 414.172V418.6H235.551V406H238.539V406.828C239.151 406.108 240.003 405.748 241.095 405.748ZM239.061 411.922C239.409 412.282 239.865 412.462 240.429 412.462C240.993 412.462 241.449 412.282 241.797 411.922C242.145 411.562 242.319 411.088 242.319 410.5C242.319 409.912 242.145 409.438 241.797 409.078C241.449 408.718 240.993 408.538 240.429 408.538C239.865 408.538 239.409 408.718 239.061 409.078C238.713 409.438 238.539 409.912 238.539 410.5C238.539 411.088 238.713 411.562 239.061 411.922ZM251.979 406H255.291L252.249 414.73C251.313 417.442 249.489 418.732 246.777 418.6V415.792C247.401 415.792 247.875 415.726 248.199 415.594C248.523 415.462 248.781 415.216 248.973 414.856L245.409 406H248.703L250.557 411.22L251.979 406ZM269.132 415H265.838L263.696 411.31V415H260.726V411.31L258.584 415H255.29L258.098 410.5L255.47 406H258.764L260.726 409.636V406H263.696V409.636L265.658 406H268.952L266.324 410.5L269.132 415ZM272.035 411.598C272.335 412.33 273.007 412.696 274.051 412.696C274.699 412.696 275.245 412.486 275.689 412.066L277.849 413.578C276.961 414.694 275.671 415.252 273.979 415.252C272.455 415.252 271.231 414.808 270.307 413.92C269.395 413.02 268.939 411.886 268.939 410.518C268.939 409.162 269.389 408.028 270.289 407.116C271.189 406.204 272.335 405.748 273.727 405.748C275.071 405.748 276.181 406.198 277.057 407.098C277.933 407.998 278.371 409.126 278.371 410.482C278.371 410.878 278.329 411.25 278.245 411.598H272.035ZM271.999 409.528H275.455C275.215 408.688 274.651 408.268 273.763 408.268C272.839 408.268 272.251 408.688 271.999 409.528ZM285.288 406H288.276V415H285.288V411.904H282.642V415H279.654V406H282.642V409.096H285.288V406ZM295.642 406H298.63V415H295.642V411.904H292.996V415H290.008V406H292.996V409.096H295.642V406ZM304.717 415.252C303.385 415.252 302.251 414.796 301.315 413.884C300.379 412.96 299.911 411.832 299.911 410.5C299.911 409.168 300.379 408.046 301.315 407.134C302.251 406.21 303.385 405.748 304.717 405.748C306.061 405.748 307.195 406.21 308.119 407.134C309.055 408.046 309.523 409.168 309.523 410.5C309.523 411.832 309.055 412.96 308.119 413.884C307.195 414.796 306.061 415.252 304.717 415.252ZM304.717 412.372C305.245 412.372 305.677 412.198 306.013 411.85C306.361 411.502 306.535 411.052 306.535 410.5C306.535 409.948 306.361 409.498 306.013 409.15C305.677 408.802 305.245 408.628 304.717 408.628C304.201 408.628 303.769 408.802 303.421 409.15C303.085 409.498 302.917 409.948 302.917 410.5C302.917 411.052 303.085 411.502 303.421 411.85C303.769 412.198 304.201 412.372 304.717 412.372ZM315.194 415.252C313.826 415.252 312.686 414.796 311.774 413.884C310.862 412.972 310.406 411.844 310.406 410.5C310.406 409.156 310.862 408.028 311.774 407.116C312.686 406.204 313.826 405.748 315.194 405.748C316.082 405.748 316.886 405.958 317.606 406.378C318.338 406.798 318.902 407.362 319.298 408.07L316.742 409.546C316.418 408.958 315.896 408.664 315.176 408.664C314.672 408.664 314.252 408.838 313.916 409.186C313.58 409.522 313.412 409.96 313.412 410.5C313.412 411.04 313.58 411.484 313.916 411.832C314.252 412.168 314.672 412.336 315.176 412.336C315.92 412.336 316.442 412.036 316.742 411.436L319.298 412.912C318.902 413.632 318.338 414.202 317.606 414.622C316.886 415.042 316.082 415.252 315.194 415.252ZM327.747 406V408.862H325.173V415H322.185V408.862H319.575V406H327.747ZM333.214 408.538C334.294 408.538 335.152 408.832 335.788 409.42C336.424 409.996 336.742 410.776 336.742 411.76C336.742 412.756 336.424 413.548 335.788 414.136C335.164 414.712 334.306 415 333.214 415H328.75V406H331.738V408.538H333.214ZM333.034 412.498C333.274 412.498 333.466 412.432 333.61 412.3C333.754 412.168 333.826 411.988 333.826 411.76C333.826 411.544 333.754 411.37 333.61 411.238C333.466 411.106 333.274 411.04 333.034 411.04H331.738V412.498H333.034Z" fill="white"/>
<path d="M1107.15 105.925C1107.95 106.308 1108.58 106.858 1109.05 107.575C1109.53 108.292 1109.77 109.117 1109.77 110.05C1109.77 111.45 1109.28 112.625 1108.3 113.575C1107.31 114.525 1106.11 115 1104.7 115H1097.15V97.5H1104.15C1105.51 97.5 1106.67 97.9583 1107.62 98.875C1108.57 99.7917 1109.05 100.925 1109.05 102.275C1109.05 103.825 1108.41 105.042 1107.15 105.925ZM1104.15 99.675H1099.47V105.025H1104.15C1104.88 105.025 1105.5 104.767 1106 104.25C1106.5 103.733 1106.75 103.1 1106.75 102.35C1106.75 101.617 1106.49 100.992 1105.97 100.475C1105.47 99.9417 1104.86 99.675 1104.15 99.675ZM1104.7 112.825C1105.48 112.825 1106.14 112.55 1106.67 112C1107.21 111.45 1107.47 110.775 1107.47 109.975C1107.47 109.192 1107.2 108.525 1106.65 107.975C1106.11 107.425 1105.46 107.15 1104.7 107.15H1099.47V112.825H1104.7ZM1117.58 107C1118.83 107 1119.86 107.375 1120.68 108.125C1121.51 108.858 1121.93 109.817 1121.93 111C1121.93 112.183 1121.51 113.15 1120.68 113.9C1119.86 114.633 1118.83 115 1117.58 115H1112.3V102.5H1114.48V107H1117.58ZM1123.55 102.5H1125.73V115H1123.55V102.5ZM1117.58 112.975C1118.19 112.975 1118.71 112.8 1119.13 112.45C1119.56 112.083 1119.78 111.6 1119.78 111C1119.78 110.4 1119.56 109.917 1119.13 109.55C1118.71 109.183 1118.19 109 1117.58 109H1114.48V112.975H1117.58ZM1139.8 112.925H1141.53V118.35H1139.38V115H1130V118.35H1127.85V112.925H1129.38C1130.18 111.825 1130.58 110.283 1130.58 108.3V102.5H1139.8V112.925ZM1131.85 112.925H1137.65V104.525H1132.73V108.3C1132.73 110.167 1132.43 111.708 1131.85 112.925ZM1153.73 102.5H1155.91V115H1153.73V112.85C1152.65 114.5 1151.07 115.325 1149.01 115.325C1147.26 115.325 1145.77 114.692 1144.53 113.425C1143.3 112.142 1142.68 110.583 1142.68 108.75C1142.68 106.917 1143.3 105.367 1144.53 104.1C1145.77 102.817 1147.26 102.175 1149.01 102.175C1151.07 102.175 1152.65 103 1153.73 104.65V102.5ZM1149.28 113.225C1150.55 113.225 1151.61 112.8 1152.46 111.95C1153.31 111.083 1153.73 110.017 1153.73 108.75C1153.73 107.483 1153.31 106.425 1152.46 105.575C1151.61 104.708 1150.55 104.275 1149.28 104.275C1148.03 104.275 1146.98 104.708 1146.13 105.575C1145.28 106.425 1144.86 107.483 1144.86 108.75C1144.86 110.017 1145.28 111.083 1146.13 111.95C1146.98 112.8 1148.03 113.225 1149.28 113.225ZM1167.08 102.5H1169.25V115H1167.08V110.5C1166.08 110.933 1164.95 111.15 1163.7 111.15C1162.1 111.15 1160.86 110.775 1159.98 110.025C1159.11 109.258 1158.68 108.133 1158.68 106.65V102.5H1160.85V106.525C1160.85 107.458 1161.1 108.125 1161.6 108.525C1162.12 108.925 1162.87 109.125 1163.85 109.125C1165.04 109.125 1166.11 108.908 1167.08 108.475V102.5ZM1182.91 102.5H1185.08V115H1182.91V112.85C1181.82 114.5 1180.25 115.325 1178.18 115.325C1176.43 115.325 1174.94 114.692 1173.71 113.425C1172.47 112.142 1171.86 110.583 1171.86 108.75C1171.86 106.917 1172.47 105.367 1173.71 104.1C1174.94 102.817 1176.43 102.175 1178.18 102.175C1180.25 102.175 1181.82 103 1182.91 104.65V102.5ZM1178.46 113.225C1179.72 113.225 1180.78 112.8 1181.63 111.95C1182.48 111.083 1182.91 110.017 1182.91 108.75C1182.91 107.483 1182.48 106.425 1181.63 105.575C1180.78 104.708 1179.72 104.275 1178.46 104.275C1177.21 104.275 1176.16 104.708 1175.31 105.575C1174.46 106.425 1174.03 107.483 1174.03 108.75C1174.03 110.017 1174.46 111.083 1175.31 111.95C1176.16 112.8 1177.21 113.225 1178.46 113.225Z" fill="white"/>
<path d="M680.418 195.74C681.058 196.047 681.565 196.487 681.938 197.06C682.325 197.633 682.518 198.293 682.518 199.04C682.518 200.16 682.125 201.1 681.338 201.86C680.551 202.62 679.591 203 678.458 203H672.418V189H678.018C679.111 189 680.038 189.367 680.798 190.1C681.558 190.833 681.938 191.74 681.938 192.82C681.938 194.06 681.431 195.033 680.418 195.74ZM678.018 190.74H674.278V195.02H678.018C678.605 195.02 679.098 194.813 679.498 194.4C679.898 193.987 680.098 193.48 680.098 192.88C680.098 192.293 679.891 191.793 679.478 191.38C679.078 190.953 678.591 190.74 678.018 190.74ZM678.458 201.26C679.085 201.26 679.611 201.04 680.038 200.6C680.465 200.16 680.678 199.62 680.678 198.98C680.678 198.353 680.458 197.82 680.018 197.38C679.591 196.94 679.071 196.72 678.458 196.72H674.278V201.26H678.458ZM688.763 196.6C689.763 196.6 690.589 196.9 691.243 197.5C691.909 198.087 692.243 198.853 692.243 199.8C692.243 200.747 691.909 201.52 691.243 202.12C690.589 202.707 689.763 203 688.763 203H684.543V193H686.283V196.6H688.763ZM693.543 193H695.283V203H693.543V193ZM688.763 201.38C689.256 201.38 689.669 201.24 690.003 200.96C690.349 200.667 690.523 200.28 690.523 199.8C690.523 199.32 690.349 198.933 690.003 198.64C689.669 198.347 689.256 198.2 688.763 198.2H686.283V201.38H688.763ZM706.541 201.34H707.921V205.68H706.201V203H698.701V205.68H696.981V201.34H698.201C698.841 200.46 699.161 199.227 699.161 197.64V193H706.541V201.34ZM700.181 201.34H704.821V194.62H700.881V197.64C700.881 199.133 700.648 200.367 700.181 201.34ZM717.686 193H719.426V203H717.686V201.28C716.819 202.6 715.559 203.26 713.906 203.26C712.506 203.26 711.313 202.753 710.326 201.74C709.339 200.713 708.846 199.467 708.846 198C708.846 196.533 709.339 195.293 710.326 194.28C711.313 193.253 712.506 192.74 713.906 192.74C715.559 192.74 716.819 193.4 717.686 194.72V193ZM714.126 201.58C715.139 201.58 715.986 201.24 716.666 200.56C717.346 199.867 717.686 199.013 717.686 198C717.686 196.987 717.346 196.14 716.666 195.46C715.986 194.767 715.139 194.42 714.126 194.42C713.126 194.42 712.286 194.767 711.606 195.46C710.926 196.14 710.586 196.987 710.586 198C710.586 199.013 710.926 199.867 711.606 200.56C712.286 201.24 713.126 201.58 714.126 201.58ZM728.362 193H730.102V203H728.362V199.4C727.562 199.747 726.662 199.92 725.662 199.92C724.382 199.92 723.389 199.62 722.682 199.02C721.989 198.407 721.642 197.507 721.642 196.32V193H723.382V196.22C723.382 196.967 723.582 197.5 723.982 197.82C724.396 198.14 724.996 198.3 725.782 198.3C726.729 198.3 727.589 198.127 728.362 197.78V193ZM741.026 193H742.766V203H741.026V201.28C740.159 202.6 738.899 203.26 737.246 203.26C735.846 203.26 734.652 202.753 733.666 201.74C732.679 200.713 732.186 199.467 732.186 198C732.186 196.533 732.679 195.293 733.666 194.28C734.652 193.253 735.846 192.74 737.246 192.74C738.899 192.74 740.159 193.4 741.026 194.72V193ZM737.466 201.58C738.479 201.58 739.326 201.24 740.006 200.56C740.686 199.867 741.026 199.013 741.026 198C741.026 196.987 740.686 196.14 740.006 195.46C739.326 194.767 738.479 194.42 737.466 194.42C736.466 194.42 735.626 194.767 734.946 195.46C734.266 196.14 733.926 196.987 733.926 198C733.926 199.013 734.266 199.867 734.946 200.56C735.626 201.24 736.466 201.58 737.466 201.58Z" fill="white"/>
<path d="M206.418 238.74C207.058 239.047 207.565 239.487 207.938 240.06C208.325 240.633 208.518 241.293 208.518 242.04C208.518 243.16 208.125 244.1 207.338 244.86C206.551 245.62 205.591 246 204.458 246H198.418V232H204.018C205.111 232 206.038 232.367 206.798 233.1C207.558 233.833 207.938 234.74 207.938 235.82C207.938 237.06 207.431 238.033 206.418 238.74ZM204.018 233.74H200.278V238.02H204.018C204.605 238.02 205.098 237.813 205.498 237.4C205.898 236.987 206.098 236.48 206.098 235.88C206.098 235.293 205.891 234.793 205.478 234.38C205.078 233.953 204.591 233.74 204.018 233.74ZM204.458 244.26C205.085 244.26 205.611 244.04 206.038 243.6C206.465 243.16 206.678 242.62 206.678 241.98C206.678 241.353 206.458 240.82 206.018 240.38C205.591 239.94 205.071 239.72 204.458 239.72H200.278V244.26H204.458ZM214.763 239.6C215.763 239.6 216.589 239.9 217.243 240.5C217.909 241.087 218.243 241.853 218.243 242.8C218.243 243.747 217.909 244.52 217.243 245.12C216.589 245.707 215.763 246 214.763 246H210.543V236H212.283V239.6H214.763ZM219.543 236H221.283V246H219.543V236ZM214.763 244.38C215.256 244.38 215.669 244.24 216.003 243.96C216.349 243.667 216.523 243.28 216.523 242.8C216.523 242.32 216.349 241.933 216.003 241.64C215.669 241.347 215.256 241.2 214.763 241.2H212.283V244.38H214.763ZM232.541 244.34H233.921V248.68H232.201V246H224.701V248.68H222.981V244.34H224.201C224.841 243.46 225.161 242.227 225.161 240.64V236H232.541V244.34ZM226.181 244.34H230.821V237.62H226.881V240.64C226.881 242.133 226.648 243.367 226.181 244.34ZM243.686 236H245.426V246H243.686V244.28C242.819 245.6 241.559 246.26 239.906 246.26C238.506 246.26 237.313 245.753 236.326 244.74C235.339 243.713 234.846 242.467 234.846 241C234.846 239.533 235.339 238.293 236.326 237.28C237.313 236.253 238.506 235.74 239.906 235.74C241.559 235.74 242.819 236.4 243.686 237.72V236ZM240.126 244.58C241.139 244.58 241.986 244.24 242.666 243.56C243.346 242.867 243.686 242.013 243.686 241C243.686 239.987 243.346 239.14 242.666 238.46C241.986 237.767 241.139 237.42 240.126 237.42C239.126 237.42 238.286 237.767 237.606 238.46C236.926 239.14 236.586 239.987 236.586 241C236.586 242.013 236.926 242.867 237.606 243.56C238.286 244.24 239.126 244.58 240.126 244.58ZM254.362 236H256.102V246H254.362V242.4C253.562 242.747 252.662 242.92 251.662 242.92C250.382 242.92 249.389 242.62 248.682 242.02C247.989 241.407 247.642 240.507 247.642 239.32V236H249.382V239.22C249.382 239.967 249.582 240.5 249.982 240.82C250.396 241.14 250.996 241.3 251.782 241.3C252.729 241.3 253.589 241.127 254.362 240.78V236ZM267.026 236H268.766V246H267.026V244.28C266.159 245.6 264.899 246.26 263.246 246.26C261.846 246.26 260.652 245.753 259.666 244.74C258.679 243.713 258.186 242.467 258.186 241C258.186 239.533 258.679 238.293 259.666 237.28C260.652 236.253 261.846 235.74 263.246 235.74C264.899 235.74 266.159 236.4 267.026 237.72V236ZM263.466 244.58C264.479 244.58 265.326 244.24 266.006 243.56C266.686 242.867 267.026 242.013 267.026 241C267.026 239.987 266.686 239.14 266.006 238.46C265.326 237.767 264.479 237.42 263.466 237.42C262.466 237.42 261.626 237.767 260.946 238.46C260.266 239.14 259.926 239.987 259.926 241C259.926 242.013 260.266 242.867 260.946 243.56C261.626 244.24 262.466 244.58 263.466 244.58Z" fill="white"/>
<defs>
<filter id="filter0_d_226_264" x="-60" y="0" width="1560" height="889" filterUnits="userSpaceOnUse" color-interpolation-filters="sRGB">
<feFlood flood-opacity="0" result="BackgroundImageFix"/>
<feColorMatrix in="SourceAlpha" type="matrix" values="0 0 0 0 0 0 0 0 0 0 0 0 0 0 0 0 0 0 127 0" result="hardAlpha"/>
<feOffset dy="4"/>
<feGaussianBlur stdDeviation="30"/>
<feComposite in2="hardAlpha" operator="out"/>
<feColorMatrix type="matrix" values="0 0 0 0 0 0 0 0 0 0 0 0 0 0 0 0 0 0 0.25 0"/>
<feBlend mode="normal" in2="BackgroundImageFix" result="effect1_dropShadow_226_264"/>
<feBlend mode="normal" in="SourceGraphic" in2="effect1_dropShadow_226_264" result="shape"/>
</filter>
<filter id="filter1_d_226_264" x="606" y="169" width="204" height="238" filterUnits="userSpaceOnUse" color-interpolation-filters="sRGB">
<feFlood flood-opacity="0" result="BackgroundImageFix"/>
<feColorMatrix in="SourceAlpha" type="matrix" values="0 0 0 0 0 0 0 0 0 0 0 0 0 0 0 0 0 0 127 0" result="hardAlpha"/>
<feOffset dy="4"/>
<feGaussianBlur stdDeviation="5"/>
<feComposite in2="hardAlpha" operator="out"/>
<feColorMatrix type="matrix" values="0 0 0 0 0.738187 0 0 0 0 0.738187 0 0 0 0 0.738187 0 0 0 0.25 0"/>
<feBlend mode="normal" in2="BackgroundImageFix" result="effect1_dropShadow_226_264"/>
<feBlend mode="normal" in="SourceGraphic" in2="effect1_dropShadow_226_264" result="shape"/>
</filter>
</defs>
</svg>
